ffmpeg started on 2025-05-12 at 17:23:17
Report written to "D:\Convert\FFMetrics\reports\psnr_report-6.txt"
Log level: 32
Command line:
ffmpeg -hide_banner -nostdin -i "G:\\\xc0\xed\xe8\xec\xe5\\\xce\xed\xe3\xee\xe8\xed\xe3\xe8\\!_35_\xcb\xe5\xf2\xee_2024\\DreamCast\\\xce\xef\xe5\xf0\xe0\xf6\xe8\xff - \xd1\xe5\xec\xe5\xe9\xea\xe0 \xa8\xe4\xe7\xe0\xea\xf3\xf0\xe0\\[DC] Yozakura-san Chi no Daisakusen - 12_Telegram_HEVC.mkv" -i "G:\\\xc0\xed\xe8\xec\xe5\\\xce\xed\xe3\xee\xe8\xed\xe3\xe8\\!_35_\xcb\xe5\xf2\xee_2024\\DreamCast\\\xce\xef\xe5\xf0\xe0\xf6\xe8\xff - \xd1\xe5\xec\xe5\xe9\xea\xe0 \xa8\xe4\xe7\xe0\xea\xf3\xf0\xe0\\[DC] Yozakura-san Chi no Daisakusen - 12_Telegram.mp4" -lavfi "[0:v]settb=AVTB,setpts=PTS-STARTPTS,format=pix_fmts=yuv420p10,fps=24000/1001,scale=1920:1080:flags=bicubic[main];[1:v]settb=AVTB,setpts=PTS-STARTPTS,format=pix_fmts=yuv420p,fps=24000/1001,scale=1920:1080:flags=bicubic[ref];[main][ref]psnr=eof_action=endall:stats_file='D\\:/Convert/FFMetrics/logs/psnr_logfile-6.txt'" -f null -
Input #0, matroska,webm, from 'G:\Аниме\Онгоинги\!_35_Лето_2024\DreamCast\Операция - Семейка Ёдзакура\[DC] Yozakura-san Chi no Daisakusen - 12_Telegram_HEVC.mkv':
  Metadata:
    COMPATIBLE_BRANDS: isomiso2avc1mp41
    MAJOR_BRAND     : isom
    MINOR_VERSION   : 512
    ENCODER         : Lavf61.7.100
  Duration: 00:23:53.60, start: -0.021000, bitrate: 1138 kb/s
  Stream #0:0: Video: hevc (Main 10), yuv420p10le(tv, bt709, progressive), 1920x1080 [SAR 1:1 DAR 16:9], 23.98 fps, 23.98 tbr, 1k tbn (default)
      Metadata:
        HANDLER_NAME    : VideoHandler
        VENDOR_ID       : [0][0][0][0]
        ENCODER         : Lavc61.19.100 libx265
        BPS             : 941802
        DURATION        : 00:23:53.515708333
        NUMBER_OF_FRAMES: 34370
        NUMBER_OF_BYTES : 168761031
        _STATISTICS_WRITING_APP: mkvpropedit v66.0.0 ('Josie') 64-bit
        _STATISTICS_WRITING_DATE_UTC: 2025-05-08 14:43:31
        _STATISTICS_TAGS: BPS DURATION NUMBER_OF_FRAMES NUMBER_OF_BYTES
  Stream #0:1: Audio: aac (LC), 48000 Hz, stereo, fltp (default)
      Metadata:
        HANDLER_NAME    : SoundHandler
        VENDOR_ID       : [0][0][0][0]
        ENCODER         : Lavc61.19.100 aac
        BPS             : 192939
        DURATION        : 00:23:53.600000000
        NUMBER_OF_FRAMES: 67201
        NUMBER_OF_BYTES : 34574761
        _STATISTICS_WRITING_APP: mkvpropedit v66.0.0 ('Josie') 64-bit
        _STATISTICS_WRITING_DATE_UTC: 2025-05-08 14:43:31
        _STATISTICS_TAGS: BPS DURATION NUMBER_OF_FRAMES NUMBER_OF_BYTES
Input #1, mov,mp4,m4a,3gp,3g2,mj2, from 'G:\Аниме\Онгоинги\!_35_Лето_2024\DreamCast\Операция - Семейка Ёдзакура\[DC] Yozakura-san Chi no Daisakusen - 12_Telegram.mp4':
  Metadata:
    major_brand     : isom
    minor_version   : 512
    compatible_brands: isomiso2avc1mp41
    encoder         : Lavf60.16.100
  Duration: 00:23:53.58, start: 0.000000, bitrate: 3460 kb/s
  Stream #1:0[0x1](und): Video: h264 (High) (avc1 / 0x31637661), yuv420p(tv, bt709, progressive), 1920x1080 [SAR 1:1 DAR 16:9], 3312 kb/s, 23.98 fps, 23.98 tbr, 24k tbn (default)
      Metadata:
        handler_name    : VideoHandler
        vendor_id       : [0][0][0][0]
        encoder         : Lavc60.31.102 h264_qsv
  Stream #1:1[0x2](und): Audio: aac (HE-AACv2) (mp4a / 0x6134706D), 48000 Hz, stereo, fltp, 144 kb/s (default)
      Metadata:
        handler_name    : SoundHandler
        vendor_id       : [0][0][0][0]
Stream mapping:
  Stream #0:0 (hevc) -> settb:default
  Stream #1:0 (h264) -> settb:default
  psnr:default -> Stream #0:0 (wrapped_avframe)
  Stream #0:1 -> #0:1 (aac (native) -> pcm_s16le (native))
Output #0, null, to 'pipe:':
  Metadata:
    COMPATIBLE_BRANDS: isomiso2avc1mp41
    MAJOR_BRAND     : isom
    MINOR_VERSION   : 512
    encoder         : Lavf61.7.100
  Stream #0:0: Video: wrapped_avframe, yuv420p10le(tv, bt709, progressive), 1920x1080 [SAR 1:1 DAR 16:9], q=2-31, 200 kb/s, 23.98 fps, 23.98 tbn
      Metadata:
        encoder         : Lavc61.19.100 wrapped_avframe
  Stream #0:1: Audio: pcm_s16le, 48000 Hz, stereo, s16, 1536 kb/s (default)
      Metadata:
        HANDLER_NAME    : SoundHandler
        VENDOR_ID       : [0][0][0][0]
        _STATISTICS_TAGS: BPS DURATION NUMBER_OF_FRAMES NUMBER_OF_BYTES
        BPS             : 192939
        DURATION        : 00:23:53.600000000
        NUMBER_OF_FRAMES: 67201
        NUMBER_OF_BYTES : 34574761
        _STATISTICS_WRITING_APP: mkvpropedit v66.0.0 ('Josie') 64-bit
        _STATISTICS_WRITING_DATE_UTC: 2025-05-08 14:43:31
        encoder         : Lavc61.19.100 pcm_s16le
frame=  157 fps=0.0 q=-0.0 size=N/A time=00:00:06.54 bitrate=N/A speed=  13x    frame=  368 fps=359 q=-0.0 size=N/A time=00:00:15.34 bitrate=N/A speed=  15x    frame=  605 fps=395 q=-0.0 size=N/A time=00:00:25.23 bitrate=N/A speed=16.5x    frame=  846 fps=412 q=-0.0 size=N/A time=00:00:35.28 bitrate=N/A speed=17.2x    frame= 1079 fps=419 q=-0.0 size=N/A time=00:00:45.00 bitrate=N/A speed=17.5x    frame= 1354 fps=438 q=-0.0 size=N/A time=00:00:56.47 bitrate=N/A speed=18.3x    frame= 1593 fps=443 q=-0.0 size=N/A time=00:01:06.44 bitrate=N/A speed=18.5x    frame= 1779 fps=432 q=-0.0 size=N/A time=00:01:14.19 bitrate=N/A speed=  18x    frame= 2004 fps=432 q=-0.0 size=N/A time=00:01:23.58 bitrate=N/A speed=  18x    frame= 2190 fps=426 q=-0.0 size=N/A time=00:01:31.34 bitrate=N/A speed=17.8x    frame= 2364 fps=418 q=-0.0 size=N/A time=00:01:38.59 bitrate=N/A speed=17.4x    frame= 2526 fps=409 q=-0.0 size=N/A time=00:01:45.35 bitrate=N/A speed=  17x    frame= 2677 fps=400 q=-0.0 size=N/A time=00:01:51.65 bitrate=N/A speed=16.7x    frame= 2838 fps=393 q=-0.0 size=N/A time=00:01:58.36 bitrate=N/A speed=16.4x    frame= 3004 fps=389 q=-0.0 size=N/A time=00:02:05.29 bitrate=N/A speed=16.2x    frame= 3195 fps=388 q=-0.0 size=N/A time=00:02:13.25 bitrate=N/A speed=16.2x    frame= 3382 fps=386 q=-0.0 size=N/A time=00:02:21.05 bitrate=N/A speed=16.1x    frame= 3570 fps=385 q=-0.0 size=N/A time=00:02:28.89 bitrate=N/A speed=16.1x    frame= 3800 fps=388 q=-0.0 size=N/A time=00:02:38.49 bitrate=N/A speed=16.2x    frame= 4055 fps=394 q=-0.0 size=N/A time=00:02:49.12 bitrate=N/A speed=16.4x    frame= 4313 fps=399 q=-0.0 size=N/A time=00:02:59.88 bitrate=N/A speed=16.6x    frame= 4580 fps=404 q=-0.0 size=N/A time=00:03:11.02 bitrate=N/A speed=16.9x    frame= 4807 fps=405 q=-0.0 size=N/A time=00:03:20.49 bitrate=N/A speed=16.9x    frame= 5073 fps=410 q=-0.0 size=N/A time=00:03:31.58 bitrate=N/A speed=17.1x    frame= 5331 fps=414 q=-0.0 size=N/A time=00:03:42.34 bitrate=N/A speed=17.3x    frame= 5571 fps=416 q=-0.0 size=N/A time=00:03:52.35 bitrate=N/A speed=17.3x    frame= 5835 fps=419 q=-0.0 size=N/A time=00:04:03.36 bitrate=N/A speed=17.5x    frame= 6104 fps=423 q=-0.0 size=N/A time=00:04:14.58 bitrate=N/A speed=17.6x    frame= 6334 fps=424 q=-0.0 size=N/A time=00:04:24.18 bitrate=N/A speed=17.7x    frame= 6508 fps=421 q=-0.0 size=N/A time=00:04:31.43 bitrate=N/A speed=17.6x    frame= 6784 fps=424 q=-0.0 size=N/A time=00:04:42.94 bitrate=N/A speed=17.7x    frame= 7048 fps=427 q=-0.0 size=N/A time=00:04:53.96 bitrate=N/A speed=17.8x    frame= 7291 fps=429 q=-0.0 size=N/A time=00:05:04.09 bitrate=N/A speed=17.9x    frame= 7531 fps=430 q=-0.0 size=N/A time=00:05:14.10 bitrate=N/A speed=17.9x    frame= 7812 fps=433 q=-0.0 size=N/A time=00:05:25.82 bitrate=N/A speed=18.1x    frame= 8061 fps=435 q=-0.0 size=N/A time=00:05:36.21 bitrate=N/A speed=18.1x    frame= 8289 fps=435 q=-0.0 size=N/A time=00:05:45.72 bitrate=N/A speed=18.1x    frame= 8567 fps=437 q=-0.0 size=N/A time=00:05:57.31 bitrate=N/A speed=18.2x    frame= 8814 fps=439 q=-0.0 size=N/A time=00:06:07.61 bitrate=N/A speed=18.3x    frame= 9100 fps=441 q=-0.0 size=N/A time=00:06:19.54 bitrate=N/A speed=18.4x    frame= 9320 fps=441 q=-0.0 size=N/A time=00:06:28.72 bitrate=N/A speed=18.4x    frame= 9596 fps=443 q=-0.0 size=N/A time=00:06:40.23 bitrate=N/A speed=18.5x    frame= 9869 fps=445 q=-0.0 size=N/A time=00:06:51.61 bitrate=N/A speed=18.6x    frame=10140 fps=447 q=-0.0 size=N/A time=00:07:02.92 bitrate=N/A speed=18.6x    frame=10389 fps=447 q=-0.0 size=N/A time=00:07:13.30 bitrate=N/A speed=18.7x    frame=10634 fps=448 q=-0.0 size=N/A time=00:07:23.52 bitrate=N/A speed=18.7x    frame=10879 fps=449 q=-0.0 size=N/A time=00:07:33.74 bitrate=N/A speed=18.7x    frame=11113 fps=449 q=-0.0 size=N/A time=00:07:43.50 bitrate=N/A speed=18.7x    frame=11332 fps=448 q=-0.0 size=N/A time=00:07:52.63 bitrate=N/A speed=18.7x    frame=11569 fps=448 q=-0.0 size=N/A time=00:08:02.52 bitrate=N/A speed=18.7x    frame=11833 fps=450 q=-0.0 size=N/A time=00:08:13.53 bitrate=N/A speed=18.8x    frame=12101 fps=451 q=-0.0 size=N/A time=00:08:24.71 bitrate=N/A speed=18.8x    frame=12373 fps=453 q=-0.0 size=N/A time=00:08:36.05 bitrate=N/A speed=18.9x    frame=12635 fps=454 q=-0.0 size=N/A time=00:08:46.98 bitrate=N/A speed=18.9x    frame=12916 fps=455 q=-0.0 size=N/A time=00:08:58.70 bitrate=N/A speed=  19x    frame=13185 fps=457 q=-0.0 size=N/A time=00:09:09.92 bitrate=N/A speed=  19x    frame=13460 fps=458 q=-0.0 size=N/A time=00:09:21.39 bitrate=N/A speed=19.1x    frame=13706 fps=458 q=-0.0 size=N/A time=00:09:31.65 bitrate=N/A speed=19.1x    frame=13935 fps=458 q=-0.0 size=N/A time=00:09:41.20 bitrate=N/A speed=19.1x    frame=14178 fps=458 q=-0.0 size=N/A time=00:09:51.34 bitrate=N/A speed=19.1x    frame=14420 fps=458 q=-0.0 size=N/A time=00:10:01.43 bitrate=N/A speed=19.1x    frame=14690 fps=460 q=-0.0 size=N/A time=00:10:12.69 bitrate=N/A speed=19.2x    frame=14960 fps=460 q=-0.0 size=N/A time=00:10:23.95 bitrate=N/A speed=19.2x    frame=15228 fps=461 q=-0.0 size=N/A time=00:10:35.13 bitrate=N/A speed=19.2x    frame=15498 fps=462 q=-0.0 size=N/A time=00:10:46.39 bitrate=N/A speed=19.3x    frame=15787 fps=464 q=-0.0 size=N/A time=00:10:58.44 bitrate=N/A speed=19.3x    frame=16042 fps=464 q=-0.0 size=N/A time=00:11:09.08 bitrate=N/A speed=19.4x    frame=16215 fps=462 q=-0.0 size=N/A time=00:11:16.30 bitrate=N/A speed=19.3x    frame=16481 fps=463 q=-0.0 size=N/A time=00:11:27.39 bitrate=N/A speed=19.3x    frame=16759 fps=464 q=-0.0 size=N/A time=00:11:38.98 bitrate=N/A speed=19.4x    frame=17032 fps=465 q=-0.0 size=N/A time=00:11:50.37 bitrate=N/A speed=19.4x    frame=17295 fps=466 q=-0.0 size=N/A time=00:12:01.34 bitrate=N/A speed=19.4x    frame=17575 fps=467 q=-0.0 size=N/A time=00:12:13.02 bitrate=N/A speed=19.5x    frame=17813 fps=467 q=-0.0 size=N/A time=00:12:22.95 bitrate=N/A speed=19.5x    frame=18102 fps=468 q=-0.0 size=N/A time=00:12:35.00 bitrate=N/A speed=19.5x    frame=18353 fps=468 q=-0.0 size=N/A time=00:12:45.47 bitrate=N/A speed=19.5x    frame=18617 fps=469 q=-0.0 size=N/A time=00:12:56.48 bitrate=N/A speed=19.6x    frame=18864 fps=469 q=-0.0 size=N/A time=00:13:06.78 bitrate=N/A speed=19.6x    frame=19107 fps=469 q=-0.0 size=N/A time=00:13:16.92 bitrate=N/A speed=19.6x    frame=19359 fps=469 q=-0.0 size=N/A time=00:13:27.43 bitrate=N/A speed=19.6x    frame=19621 fps=470 q=-0.0 size=N/A time=00:13:38.35 bitrate=N/A speed=19.6x    frame=19855 fps=469 q=-0.0 size=N/A time=00:13:48.11 bitrate=N/A speed=19.6x    frame=20129 fps=470 q=-0.0 size=N/A time=00:13:59.58 bitrate=N/A speed=19.6x    frame=20407 fps=471 q=-0.0 size=N/A time=00:14:11.14 bitrate=N/A speed=19.6x    frame=20679 fps=472 q=-0.0 size=N/A time=00:14:22.48 bitrate=N/A speed=19.7x    frame=20963 fps=472 q=-0.0 size=N/A time=00:14:34.33 bitrate=N/A speed=19.7x    frame=21205 fps=472 q=-0.0 size=N/A time=00:14:44.42 bitrate=N/A speed=19.7x    frame=21450 fps=473 q=-0.0 size=N/A time=00:14:54.64 bitrate=N/A speed=19.7x    frame=21679 fps=472 q=-0.0 size=N/A time=00:15:04.19 bitrate=N/A speed=19.7x    frame=21918 fps=472 q=-0.0 size=N/A time=00:15:14.16 bitrate=N/A speed=19.7x    frame=22166 fps=472 q=-0.0 size=N/A time=00:15:24.50 bitrate=N/A speed=19.7x    frame=22413 fps=472 q=-0.0 size=N/A time=00:15:34.80 bitrate=N/A speed=19.7x    frame=22687 fps=473 q=-0.0 size=N/A time=00:15:46.23 bitrate=N/A speed=19.7x    frame=22967 fps=474 q=-0.0 size=N/A time=00:15:57.91 bitrate=N/A speed=19.8x    frame=23230 fps=474 q=-0.0 size=N/A time=00:16:08.88 bitrate=N/A speed=19.8x    frame=23505 fps=475 q=-0.0 size=N/A time=00:16:20.35 bitrate=N/A speed=19.8x    frame=23779 fps=475 q=-0.0 size=N/A time=00:16:31.78 bitrate=N/A speed=19.8x    frame=24054 fps=476 q=-0.0 size=N/A time=00:16:43.25 bitrate=N/A speed=19.8x    frame=24311 fps=476 q=-0.0 size=N/A time=00:16:53.97 bitrate=N/A speed=19.9x    frame=24582 fps=477 q=-0.0 size=N/A time=00:17:05.27 bitrate=N/A speed=19.9x    frame=24847 fps=477 q=-0.0 size=N/A time=00:17:16.32 bitrate=N/A speed=19.9x    frame=25094 fps=477 q=-0.0 size=N/A time=00:17:26.62 bitrate=N/A speed=19.9x    frame=25358 fps=477 q=-0.0 size=N/A time=00:17:37.63 bitrate=N/A speed=19.9x    frame=25608 fps=477 q=-0.0 size=N/A time=00:17:48.06 bitrate=N/A speed=19.9x    frame=25841 fps=477 q=-0.0 size=N/A time=00:17:57.78 bitrate=N/A speed=19.9x    frame=26111 fps=477 q=-0.0 size=N/A time=00:18:09.08 bitrate=N/A speed=19.9x    frame=26382 fps=478 q=-0.0 size=N/A time=00:18:20.34 bitrate=N/A speed=19.9x    frame=26671 fps=479 q=-0.0 size=N/A time=00:18:32.40 bitrate=N/A speed=  20x    frame=26935 fps=479 q=-0.0 size=N/A time=00:18:43.41 bitrate=N/A speed=  20x    frame=27211 fps=479 q=-0.0 size=N/A time=00:18:54.92 bitrate=N/A speed=  20x    frame=27487 fps=480 q=-0.0 size=N/A time=00:19:06.43 bitrate=N/A speed=  20x    frame=27756 fps=480 q=-0.0 size=N/A time=00:19:17.65 bitrate=N/A speed=  20x    frame=28027 fps=481 q=-0.0 size=N/A time=00:19:28.95 bitrate=N/A speed=20.1x    frame=28283 fps=481 q=-0.0 size=N/A time=00:19:39.63 bitrate=N/A speed=20.1x    frame=28523 fps=481 q=-0.0 size=N/A time=00:19:49.64 bitrate=N/A speed=20.1x    frame=28809 fps=481 q=-0.0 size=N/A time=00:20:01.57 bitrate=N/A speed=20.1x    frame=29045 fps=481 q=-0.0 size=N/A time=00:20:11.41 bitrate=N/A speed=20.1x    frame=29311 fps=481 q=-0.0 size=N/A time=00:20:22.51 bitrate=N/A speed=20.1x    frame=29527 fps=481 q=-0.0 size=N/A time=00:20:31.52 bitrate=N/A speed=20.1x    frame=29753 fps=481 q=-0.0 size=N/A time=00:20:40.94 bitrate=N/A speed=  20x    frame=30000 fps=481 q=-0.0 size=N/A time=00:20:51.25 bitrate=N/A speed=  20x    frame=30282 fps=481 q=-0.0 size=N/A time=00:21:03.01 bitrate=N/A speed=20.1x    frame=30487 fps=480 q=-0.0 size=N/A time=00:21:11.56 bitrate=N/A speed=  20x    frame=30717 fps=480 q=-0.0 size=N/A time=00:21:21.15 bitrate=N/A speed=  20x    frame=30956 fps=480 q=-0.0 size=N/A time=00:21:31.12 bitrate=N/A speed=  20x    frame=31175 fps=480 q=-0.0 size=N/A time=00:21:40.25 bitrate=N/A speed=  20x    frame=31407 fps=479 q=-0.0 size=N/A time=00:21:49.93 bitrate=N/A speed=  20x    frame=31633 fps=479 q=-0.0 size=N/A time=00:21:59.35 bitrate=N/A speed=  20x    frame=31870 fps=479 q=-0.0 size=N/A time=00:22:09.24 bitrate=N/A speed=  20x    frame=32113 fps=479 q=-0.0 size=N/A time=00:22:19.37 bitrate=N/A speed=  20x    frame=32329 fps=478 q=-0.0 size=N/A time=00:22:28.38 bitrate=N/A speed=  20x    frame=32576 fps=478 q=-0.0 size=N/A time=00:22:38.69 bitrate=N/A speed=  20x    frame=32805 fps=478 q=-0.0 size=N/A time=00:22:48.24 bitrate=N/A speed=19.9x    frame=33036 fps=478 q=-0.0 size=N/A time=00:22:57.87 bitrate=N/A speed=19.9x    frame=33258 fps=477 q=-0.0 size=N/A time=00:23:07.13 bitrate=N/A speed=19.9x    frame=33454 fps=477 q=-0.0 size=N/A time=00:23:15.31 bitrate=N/A speed=19.9x    frame=33628 fps=476 q=-0.0 size=N/A time=00:23:22.56 bitrate=N/A speed=19.8x    frame=33792 fps=475 q=-0.0 size=N/A time=00:23:29.40 bitrate=N/A speed=19.8x    frame=34008 fps=474 q=-0.0 size=N/A time=00:23:38.41 bitrate=N/A speed=19.8x    frame=34170 fps=473 q=-0.0 size=N/A time=00:23:45.17 bitrate=N/A speed=19.7x    frame=34357 fps=472 q=-0.0 size=N/A time=00:23:52.97 bitrate=N/A speed=19.7x    [Parsed_psnr_10 @ 000001b67452e280] PSNR y:47.828681 u:50.064221 v:49.886548 average:48.433276 min:38.046652 max:inf
[out#0/null @ 000001b6674967c0] video:14768KiB audio:268804KiB subtitle:0KiB other streams:0KiB global headers:0KiB muxing overhead: unknown
frame=34370 fps=472 q=-0.0 Lsize=N/A time=00:23:53.51 bitrate=N/A speed=19.7x    
